# xmcd CD database file
#
# Track frame offsets:
#	150
#	15142
#	41325
#	76457
#	92752
#	145615
#
# Disc length: 2099 seconds
#
# Revision: 1
# Processed by: cddbd v1.4PL0 Copyright (c) Steve Scherf et al.
# Submitted via: Feurio! 1.62.4ß - http://www.feurio.com
#
DISCID=36083106
DTITLE=Chris Barber - Come Friday
DYEAR=1900
DGENRE=
TTITLE0=Stevedoors Stomp
TTITLE1=Come Friday
TTITLE2=Sweet Sue
TTITLE3=Wild Cat Blues
TTITLE4=ST. Louis Blues
TTITLE5=Alligator Hop
EXTD=
EXTT0=
EXTT1=
EXTT2=
EXTT3=
EXTT4=
EXTT5=
PLAYORDER=
